<?xml version="1.0" standalone="no"?>
<!DOCTYPE svg PUBLIC "-//W3C//DTD SVG 20010904//EN"
 "http://www.w3.org/TR/2001/REC-SVG-20010904/DTD/svg10.dtd">
<svg version="1.0" xmlns="http://www.w3.org/2000/svg"
 width="282.000000pt" height="282.000000pt" viewBox="0 0 282.000000 282.000000"
 preserveAspectRatio="xMidYMid meet">
<metadata>
Created by potrace 1.14, written by Peter Selinger 2001-2017
</metadata>
<g transform="translate(0.000000,282.000000) scale(0.100000,-0.100000)"
fill="#000000" stroke="none">
<path d="M386 2804 c-179 -43 -328 -193 -371 -375 -22 -96 -22 -1942 0 -2038
45 -188 209 -347 394 -381 73 -14 1929 -14 2002 0 186 34 349 192 394 381 22
96 22 1942 0 2038 -44 184 -192 332 -376 376 -93 21 -1952 21 -2043 -1z m1239
-104 c219 -56 382 -127 510 -223 265 -198 426 -445 505 -772 31 -129 31 -431
0 -561 -60 -249 -164 -438 -334 -609 -193 -193 -387 -304 -641 -366 -75 -18
-122 -22 -285 -23 -230 -1 -297 9 -458 73 -223 88 -378 198 -528 376 -99 117
-184 264 -234 404 -26 73 -27 159 -2 177 22 18 538 20 576 3 13 -6 34 -32 47
-58 93 -185 275 -318 489 -357 96 -17 139 -17 220 0 220 47 374 158 482 346
34 59 56 126 73 225 12 69 12 93 0 178 -24 157 -77 268 -179 376 -52 54 -163
141 -181 141 -3 0 -24 9 -48 19 -85 39 -121 45 -257 46 -118 0 -143 -3 -200
-24 -114 -42 -232 -111 -275 -163 -60 -71 -102 -127 -119 -158 -10 -19 -28
-45 -39 -57 -20 -23 -23 -23 -294 -23 -170 0 -282 4 -294 10 -29 16 -26 106 6
195 83 229 284 487 481 618 143 94 333 175 474 202 80 15 450 19 505 5z m-108
-997 c62 -30 111 -82 144 -152 32 -67 30 -181 -5 -254 -28 -60 -96 -128 -153
-153 -52 -24 -194 -24 -247 0 -54 24 -130 99 -157 154 -17 36 -22 65 -23 127
0 97 20 149 85 217 68 70 108 87 212 88 76 0 96 -4 144 -27z"/>
</g>
</svg>
