<?xml version="1.0" standalone="no"?>
<!DOCTYPE svg PUBLIC "-//W3C//DTD SVG 20010904//EN"
 "http://www.w3.org/TR/2001/REC-SVG-20010904/DTD/svg10.dtd">
<svg version="1.0" xmlns="http://www.w3.org/2000/svg"
 width="512.000000pt" height="512.000000pt" viewBox="0 0 512.000000 512.000000"
 preserveAspectRatio="xMidYMid meet">
<metadata>
Created by potrace 1.14, written by Peter Selinger 2001-2017
</metadata>
<g transform="translate(0.000000,512.000000) scale(0.100000,-0.100000)"
fill="#000000" stroke="none">
<path d="M2401 4910 c-88 -116 -168 -221 -178 -235 l-18 -24 -140 85 c-77 48
-191 118 -253 156 -66 41 -117 67 -122 62 -6 -7 -61 -221 -85 -334 -2 -8 -15
-66 -31 -127 l-27 -113 -42 4 c-23 3 -82 12 -131 20 -49 9 -120 20 -159 26
-98 14 -132 20 -194 30 -30 6 -59 10 -63 10 -8 0 -6 -32 6 -95 3 -18 11 -65
21 -135 2 -14 16 -96 30 -183 14 -87 25 -164 25 -171 0 -7 -29 -19 -67 -29
-182 -46 -489 -119 -500 -120 -19 -1 -16 -18 8 -52 11 -16 24 -39 30 -50 5
-11 65 -110 134 -219 l124 -200 -103 -75 c-56 -42 -164 -120 -239 -175 -75
-54 -137 -102 -137 -106 0 -4 105 -83 233 -175 265 -192 255 -183 242 -193 -6
-4 -41 -59 -79 -122 -38 -63 -107 -175 -152 -247 l-83 -133 37 -10 c49 -13
543 -130 550 -130 4 0 -2 -64 -12 -115 -2 -11 -9 -60 -16 -108 l-12 -89 -284
-426 c-156 -235 -289 -434 -295 -443 -6 -8 -42 -62 -79 -120 -38 -57 -73 -108
-77 -114 -4 -5 -25 -36 -46 -67 l-37 -58 409 0 409 0 163 -132 c89 -73 174
-143 190 -156 l28 -22 158 212 c88 117 186 249 218 293 33 44 63 85 67 90 5 6
25 33 45 60 21 28 43 57 50 65 6 8 60 80 119 160 119 160 121 162 150 178 19
10 34 -7 188 -221 92 -128 171 -239 176 -247 8 -13 11 -12 24 5 7 11 88 122
178 247 l165 227 27 -18 c15 -10 176 -218 359 -463 183 -245 342 -458 354
-474 12 -16 36 -48 53 -72 l31 -43 102 84 c56 46 142 115 191 155 l88 72 409
0 409 0 -92 137 c-51 76 -95 143 -98 148 -9 17 -344 520 -351 525 -3 3 -8 10
-10 15 -2 6 -62 97 -133 203 l-129 193 -24 156 c-13 86 -22 157 -21 158 4 3
476 116 536 129 l53 11 -64 105 c-35 58 -107 175 -159 260 l-95 155 243 175
c134 96 243 177 243 180 0 3 -63 50 -140 105 -77 55 -159 114 -182 131 -23 17
-69 51 -103 75 l-61 44 157 255 c87 140 155 258 151 261 -3 4 -85 25 -181 48
-291 69 -395 95 -398 97 -2 1 12 103 32 226 20 123 38 237 41 253 2 17 7 49
10 73 5 32 4 42 -7 42 -18 0 -211 -31 -288 -46 -8 -2 -37 -6 -64 -9 -27 -4
-56 -8 -65 -10 -81 -15 -163 -26 -165 -24 -2 2 -34 132 -71 289 -37 157 -70
288 -74 291 -3 4 -118 -63 -255 -148 -137 -84 -254 -152 -261 -150 -6 3 -88
107 -182 231 l-172 227 -160 -211z"/>
</g>
</svg>
